<svg xmlns="http://www.w3.org/2000/svg" width="512" height="512" viewBox="0 0 512 512">
<defs>
  <radialGradient id="bgl512" cx="50%" cy="50%" r="60%">
    <stop offset="0%" stop-color="#f0f6ff"/><stop offset="100%" stop-color="#e2ecf8"/>
  </radialGradient>
  <linearGradient id="tTl512" x1="0%" y1="0%" x2="0%" y2="100%">
    <stop offset="0%" stop-color="#a0ccf0"/>
    <stop offset="40%" stop-color="#2a7bbf"/>
    <stop offset="100%" stop-color="#0d3a6a"/>
  </linearGradient>
  <linearGradient id="tLl512" x1="100%" y1="0%" x2="0%" y2="100%">
    <stop offset="0%" stop-color="#1a5a90"/>
    <stop offset="100%" stop-color="#082840"/>
  </linearGradient>
  <linearGradient id="tRl512" x1="0%" y1="0%" x2="100%" y2="100%">
    <stop offset="0%" stop-color="#1a6a9a"/>
    <stop offset="100%" stop-color="#051e30"/>
  </linearGradient>
  <linearGradient id="barl512" x1="0%" y1="0%" x2="100%" y2="0%">
    <stop offset="0%" stop-color="#e07000" stop-opacity="0"/>
    <stop offset="30%" stop-color="#e07000" stop-opacity="0.9"/>
    <stop offset="70%" stop-color="#e07000" stop-opacity="0.9"/>
    <stop offset="100%" stop-color="#e07000" stop-opacity="0"/>
  </linearGradient>
  <filter id="sgl512"><feGaussianBlur stdDeviation="4" result="b"/>
    <feMerge><feMergeNode in="b"/><feMergeNode in="SourceGraphic"/></feMerge></filter>
  <filter id="igl512"><feGaussianBlur stdDeviation="3" result="b"/>
    <feMerge><feMergeNode in="b"/><feMergeNode in="SourceGraphic"/></feMerge></filter>
  <filter id="bg2l512"><feGaussianBlur stdDeviation="6" result="b"/>
    <feMerge><feMergeNode in="b"/><feMergeNode in="SourceGraphic"/></feMerge></filter>
</defs>
<rect width="512" height="512" rx="64" fill="url(#bgl512)"/>
<line x1="0" y1="0" x2="0" y2="512" stroke="#c5d8ee" stroke-width="0.5" opacity="0.4"/>
<line x1="32" y1="0" x2="32" y2="512" stroke="#c5d8ee" stroke-width="0.5" opacity="0.4"/>
<line x1="64" y1="0" x2="64" y2="512" stroke="#c5d8ee" stroke-width="0.5" opacity="0.4"/>
<line x1="96" y1="0" x2="96" y2="512" stroke="#c5d8ee" stroke-width="0.5" opacity="0.4"/>
<line x1="128" y1="0" x2="128" y2="512" stroke="#c5d8ee" stroke-width="0.5" opacity="0.4"/>
<line x1="160" y1="0" x2="160" y2="512" stroke="#c5d8ee" stroke-width="0.5" opacity="0.4"/>
<line x1="192" y1="0" x2="192" y2="512" stroke="#c5d8ee" stroke-width="0.5" opacity="0.4"/>
<line x1="224" y1="0" x2="224" y2="512" stroke="#c5d8ee" stroke-width="0.5" opacity="0.4"/>
<line x1="256" y1="0" x2="256" y2="512" stroke="#c5d8ee" stroke-width="0.5" opacity="0.4"/>
<line x1="288" y1="0" x2="288" y2="512" stroke="#c5d8ee" stroke-width="0.5" opacity="0.4"/>
<line x1="320" y1="0" x2="320" y2="512" stroke="#c5d8ee" stroke-width="0.5" opacity="0.4"/>
<line x1="352" y1="0" x2="352" y2="512" stroke="#c5d8ee" stroke-width="0.5" opacity="0.4"/>
<line x1="384" y1="0" x2="384" y2="512" stroke="#c5d8ee" stroke-width="0.5" opacity="0.4"/>
<line x1="416" y1="0" x2="416" y2="512" stroke="#c5d8ee" stroke-width="0.5" opacity="0.4"/>
<line x1="448" y1="0" x2="448" y2="512" stroke="#c5d8ee" stroke-width="0.5" opacity="0.4"/>
<line x1="480" y1="0" x2="480" y2="512" stroke="#c5d8ee" stroke-width="0.5" opacity="0.4"/>
<line x1="512" y1="0" x2="512" y2="512" stroke="#c5d8ee" stroke-width="0.5" opacity="0.4"/>
<line x1="0" y1="0" x2="512" y2="0" stroke="#c5d8ee" stroke-width="0.5" opacity="0.4"/>
<line x1="0" y1="32" x2="512" y2="32" stroke="#c5d8ee" stroke-width="0.5" opacity="0.4"/>
<line x1="0" y1="64" x2="512" y2="64" stroke="#c5d8ee" stroke-width="0.5" opacity="0.4"/>
<line x1="0" y1="96" x2="512" y2="96" stroke="#c5d8ee" stroke-width="0.5" opacity="0.4"/>
<line x1="0" y1="128" x2="512" y2="128" stroke="#c5d8ee" stroke-width="0.5" opacity="0.4"/>
<line x1="0" y1="160" x2="512" y2="160" stroke="#c5d8ee" stroke-width="0.5" opacity="0.4"/>
<line x1="0" y1="192" x2="512" y2="192" stroke="#c5d8ee" stroke-width="0.5" opacity="0.4"/>
<line x1="0" y1="224" x2="512" y2="224" stroke="#c5d8ee" stroke-width="0.5" opacity="0.4"/>
<line x1="0" y1="256" x2="512" y2="256" stroke="#c5d8ee" stroke-width="0.5" opacity="0.4"/>
<line x1="0" y1="288" x2="512" y2="288" stroke="#c5d8ee" stroke-width="0.5" opacity="0.4"/>
<line x1="0" y1="320" x2="512" y2="320" stroke="#c5d8ee" stroke-width="0.5" opacity="0.4"/>
<line x1="0" y1="352" x2="512" y2="352" stroke="#c5d8ee" stroke-width="0.5" opacity="0.4"/>
<line x1="0" y1="384" x2="512" y2="384" stroke="#c5d8ee" stroke-width="0.5" opacity="0.4"/>
<line x1="0" y1="416" x2="512" y2="416" stroke="#c5d8ee" stroke-width="0.5" opacity="0.4"/>
<line x1="0" y1="448" x2="512" y2="448" stroke="#c5d8ee" stroke-width="0.5" opacity="0.4"/>
<line x1="0" y1="480" x2="512" y2="480" stroke="#c5d8ee" stroke-width="0.5" opacity="0.4"/>
<line x1="0" y1="512" x2="512" y2="512" stroke="#c5d8ee" stroke-width="0.5" opacity="0.4"/>
<line x1="256.0" y1="131.0" x2="256.0" y2="97.0" stroke="#1a5a9a" stroke-width="1" stroke-linecap="round" opacity="0.7"/>
<line x1="358.4" y1="184.3" x2="386.2" y2="164.8" stroke="#1a5a9a" stroke-width="1" stroke-linecap="round" opacity="0.7"/>
<line x1="358.4" y1="327.7" x2="386.2" y2="347.2" stroke="#1a5a9a" stroke-width="1" stroke-linecap="round" opacity="0.7"/>
<line x1="256.0" y1="381.0" x2="256.0" y2="415.0" stroke="#1a5a9a" stroke-width="1" stroke-linecap="round" opacity="0.7"/>
<line x1="153.6" y1="327.7" x2="125.8" y2="347.2" stroke="#1a5a9a" stroke-width="1" stroke-linecap="round" opacity="0.7"/>
<line x1="153.6" y1="184.3" x2="125.8" y2="164.8" stroke="#1a5a9a" stroke-width="1" stroke-linecap="round" opacity="0.7"/>
<line x1="48" y1="256" x2="136" y2="256" stroke="#1a5a9a" stroke-width="3" stroke-linecap="round" filter="url(#sgl512)" opacity="0.9"/>
<polygon points="146,256 132,248 132,264" fill="#1a5a9a" opacity="0.9"/>
<circle cx="48" cy="256" r="5" fill="#1a5a9a" opacity="0.7" filter="url(#sgl512)"/>
<polygon points="256,158 170,320 342,320" fill="#0a2540" opacity="0.5"/>
<polygon points="256,162 174,318 256,260" fill="url(#tLl512)" opacity="0.92"/>
<polygon points="256,162 338,318 256,260" fill="url(#tTl512)" opacity="0.92"/>
<polygon points="174,318 338,318 256,260" fill="url(#tRl512)" opacity="0.88"/>
<polygon points="256,162 174,318 338,318" fill="none" stroke="#1a5a9a" stroke-width="2" opacity="0.8" filter="url(#sgl512)"/>
<polygon points="256,162 174,318 338,318" fill="none" stroke="#ffffff" stroke-width="1" opacity="0.5"/>
<rect x="196" y="336" width="120" height="8" rx="4" fill="url(#barl512)" filter="url(#bg2l512)" opacity="0.6"/>
<rect x="196" y="335" width="120" height="4" rx="2" fill="url(#barl512)" opacity="0.95"/>
<circle cx="254" cy="59" r="15" fill="none" stroke="#1a5a9a" stroke-width="2.2" filter="url(#igl512)"/>
<line x1="261" y1="66" x2="271" y2="76" stroke="#1a5a9a" stroke-width="2.2" stroke-linecap="round"/>
<circle cx="254" cy="59" r="3" fill="#1a5a9a" opacity="0.7"/>
<circle cx="249" cy="55" r="2" fill="#1a5a9a" opacity="0.6"/>
<circle cx="259" cy="54" r="2" fill="#1a5a9a" opacity="0.6"/>
<line x1="254" y1="59" x2="249" y2="55" stroke="#1a5a9a" stroke-width="0.9" opacity="0.6"/>
<line x1="254" y1="59" x2="259" y2="54" stroke="#1a5a9a" stroke-width="0.9" opacity="0.6"/>
<path d="M 424.0,139.0 L 418.4,142.5 L 419.9,148.9 L 413.5,147.4 L 410.0,153.0 L 406.5,147.4 L 400.1,148.9 L 401.6,142.5 L 396.0,139.0 L 401.6,135.5 L 400.1,129.1 L 406.5,130.6 L 410.0,125.0 L 413.5,130.6 L 419.9,129.1 L 418.4,135.5 Z" fill="none" stroke="#1a5a9a" stroke-width="2.2" stroke-linejoin="round" filter="url(#igl512)"/>
<circle cx="410" cy="139" r="5" fill="none" stroke="#1a5a9a" stroke-width="2.2"/>
<path d="M 433.0,152.0 L 428.6,155.2 L 428.0,160.7 L 423.0,158.5 L 418.0,160.7 L 417.4,155.2 L 413.0,152.0 L 417.4,148.8 L 418.0,143.3 L 423.0,145.5 L 428.0,143.3 L 428.6,148.8 Z" fill="none" stroke="#1a5a9a" stroke-width="2.0" stroke-linejoin="round"/>
<circle cx="423" cy="152" r="4" fill="none" stroke="#1a5a9a" stroke-width="2.0"/>
<path d="M 415,349 L 431,357 L 431,371 Q 431,383 415,389 Q 399,383 399,371 L 399,357 Z" fill="none" stroke="#1a5a9a" stroke-width="2.2" stroke-linejoin="round" filter="url(#igl512)"/>
<polyline points="408,369 414,375 424,363" fill="none" stroke="#1a5a9a" stroke-width="2.2" stroke-linecap="round" stroke-linejoin="round"/>
<line x1="232" y1="451" x2="280" y2="451" stroke="#1a5a9a" stroke-width="0.8" opacity="0.3" stroke-dasharray="2,3"/>
<path d="M 234,451 L 244,451 L 248,451 L 252,435 L 256,465 L 260,443 L 264,455 L 268,451 L 278,451" fill="none" stroke="#1a5a9a" stroke-width="2.2" stroke-linecap="round" stroke-linejoin="round" filter="url(#igl512)"/>
<circle cx="252" cy="435" r="2" fill="#1a5a9a" opacity="0.9"/>
<polygon points="102,347 94,365 104,365 90,387 100,371 90,371" fill="none" stroke="#1a5a9a" stroke-width="2.2" stroke-linejoin="round" filter="url(#igl512)"/>
<line x1="78" y1="359" x2="86" y2="359" stroke="#1a5a9a" stroke-width="1.5" stroke-linecap="round" opacity="0.6"/>
<line x1="76" y1="367" x2="86" y2="367" stroke="#1a5a9a" stroke-width="1.5" stroke-linecap="round" opacity="0.5"/>
<rect x="82" y="146" width="7" height="12" fill="#1a5a9a" opacity="0.5" rx="1"/>
<rect x="92" y="140" width="7" height="18" fill="#1a5a9a" opacity="0.7" rx="1"/>
<rect x="102" y="134" width="7" height="24" fill="#1a5a9a" opacity="0.9" rx="1"/>
<line x1="80" y1="158" x2="112" y2="158" stroke="#1a5a9a" stroke-width="1.5"/>
<line x1="110" y1="132" x2="116" y2="126" stroke="#1a5a9a" stroke-width="2.2" stroke-linecap="round"/>
<polygon points="116,126 110,124 118,132" fill="#1a5a9a"/>
</svg>